<?xml version="1.0" encoding="UTF-8" standalone="no"?>
<!-- Created with Inkscape (http://www.inkscape.org/) -->

<svg
   xmlns:dc="http://purl.org/dc/elements/1.1/"
   xmlns:cc="http://creativecommons.org/ns#"
   xmlns:rdf="http://www.w3.org/1999/02/22-rdf-syntax-ns#"
   xmlns:svg="http://www.w3.org/2000/svg"
   xmlns="http://www.w3.org/2000/svg"
   xmlns:sodipodi="http://sodipodi.sourceforge.net/DTD/sodipodi-0.dtd"
   xmlns:inkscape="http://www.inkscape.org/namespaces/inkscape"
   width="100"
   height="100"
   viewBox="0 0 100 100"
   id="svg2"
   version="1.1"
   inkscape:version="0.91 r13725"
   sodipodi:docname="drawing.svg">
  <defs
     id="defs4" />
  <sodipodi:namedview
     id="base"
     pagecolor="#ffffff"
     bordercolor="#666666"
     borderopacity="1.0"
     inkscape:pageopacity="0.0"
     inkscape:pageshadow="2"
     inkscape:zoom="0.31248635"
     inkscape:cx="-7618.8587"
     inkscape:cy="2803.3564"
     inkscape:document-units="px"
     inkscape:current-layer="layer1"
     showgrid="false"
     showborder="true"
     units="px"
     inkscape:window-width="1920"
     inkscape:window-height="1141"
     inkscape:window-x="0"
     inkscape:window-y="27"
     inkscape:window-maximized="1" />
  <metadata
     id="metadata7">
    <rdf:RDF>
      <cc:Work
         rdf:about="">
        <dc:format>image/svg+xml</dc:format>
        <dc:type
           rdf:resource="http://purl.org/dc/dcmitype/StillImage" />
        <dc:title />
      </cc:Work>
    </rdf:RDF>
  </metadata>
  <g
     inkscape:label="Layer 1"
     inkscape:groupmode="layer"
     id="layer1"
     transform="translate(0,-952.3622)">
    <rect
       style="opacity:1;fill:none;fill-opacity:1;stroke:none;stroke-width:200;stroke-linecap:round;stroke-linejoin:round;stroke-miterlimit:4;stroke-dasharray:none;stroke-opacity:1"
       id="rect4210"
       width="1300"
       height="1300"
       x="-9072.0742"
       y="-2462.6113"
       inkscape:export-xdpi="2.2153847"
       inkscape:export-ydpi="2.2153847" />
    <g
       id="g4146">
      <rect
         inkscape:export-ydpi="2.22"
         inkscape:export-xdpi="2.22"
         y="325.20813"
         x="-1514.1875"
         height="1300"
         width="1300"
         id="rect4420"
         style="opacity:1;fill:none;fill-opacity:1;stroke:none;stroke-width:200;stroke-linecap:round;stroke-linejoin:round;stroke-miterlimit:4;stroke-dasharray:none;stroke-opacity:1" />
      <path
         id="rect4276"
         d="m -1029.0629,325.20811 0,322.81863 0,86.07538 -86.0754,0 -323.1679,0 0,651.77238 117.8774,0 c 172.3843,-305.0963 350.47834,-606.97123 524.62675,-911.06633 18.66514,-46.0287 59.45714,-83.71304 107.48232,-96.60642 l 0,-52.99364 -340.74317,0 z m -86.0754,2.23217 -320.5869,320.58646 320.5869,0 0,-320.58646 z"
         style="opacity:1;fill:#cccccc;fill-opacity:1;stroke:none;stroke-width:200;stroke-linecap:round;stroke-linejoin:round;stroke-miterlimit:4;stroke-dasharray:none;stroke-opacity:1"
         inkscape:connector-curvature="0" />
      <path
         inkscape:connector-curvature="0"
         id="path4142"
         d="m -652.65657,427.80434 c -33.12701,-0.34111 -63.84715,17.26285 -80.41694,45.94737 l -580.28909,1005.09149 159.2224,91.9278 169.16677,-292.9996 c -56.14177,-7.4849 -99.59737,-55.5612 -99.59737,-113.9098 0,-64.1081 52.4475,-115.8149 116.54871,-114.9135 40.64208,0 77.84398,1.8031 112.16589,5.1897 l 171.04219,-296.25471 107.92851,402.79161 c -94.6409,-50.6736 -203.08292,-88.736 -391.13659,-88.736 a 91.938219,91.938219 0 1 0 0,183.8557 c 177.86689,0 229.83948,25.0518 319.11632,75.0529 101.61912,56.911 144.73809,125.0638 162.89331,168.9642 l 3.57035,13.3273 11.76772,43.915 c 0.51082,1.9491 1.1159,3.8496 1.75061,5.6817 a 91.938219,91.938219 0 0 0 0.11043,0.4874 c 1.02433,2.8751 2.09714,5.6526 3.33514,8.3522 17.51692,38.2866 59.54692,60.4876 102.07966,51.731 27.05911,-5.5648 48.98578,-22.5617 61.61893,-45.0211 a 91.938219,91.938219 0 0 0 0.0987,-0.4873 c 1.45346,-2.5826 2.77316,-5.2578 3.97076,-7.9817 a 91.938219,91.938219 0 0 0 0.11042,-0.4874 c 1.18683,-2.68 2.23181,-5.5063 3.152,-8.3474 a 91.938219,91.938219 0 0 0 0.0449,-0.4872 c 0.92109,-2.875 1.70932,-5.789 2.34313,-8.7713 0.61496,-2.9725 1.13565,-5.9791 1.47411,-9.0246 0,-0.013 0,-0.014 0,0 a 91.938219,91.938219 0 0 0 0,-0.014 c 0.30613,-2.9725 0.51082,-5.9645 0.51082,-8.9906 a 91.938219,91.938219 0 0 0 0,-0.4873 c 0.0359,-2.875 -0.0979,-5.7598 -0.30614,-8.6786 a 91.938219,91.938219 0 0 0 -0.0359,-0.5848 c -0.11042,-1.5593 -0.30613,-3.07 -0.51082,-4.6293 0,0 -0.0718,-0.4873 -0.0898,-0.4873 a 91.938219,91.938219 0 0 0 -0.10953,-1.072 c 0,0 -0.61496,-3.2648 -1.97595,-9.1612 l 0,0 -0.0628,-0.4874 c -0.30703,-1.4618 -0.7164,-3.0699 -1.18772,-4.7754 -1.21735,-4.9216 -2.84587,-10.8861 -4.92147,-18.0006 L -564.68866,495.36497 c -10.70119,-39.89468 -46.69202,-67.75518 -87.99574,-68.11627 z m -312.90479,668.75236 a 66.484388,66.484388 0 0 1 66.48564,66.4863 66.484388,66.484388 0 0 1 -66.48564,66.4814 66.484388,66.484388 0 0 1 -66.48474,-66.4814 66.484388,66.484388 0 0 1 66.48474,-66.4863 z m -17.23592,37.7555 c -6.36595,0 -11.49121,5.1313 -11.49121,11.4904 0,6.3689 5.12616,11.4903 11.49121,11.4903 6.36595,0 11.49032,-5.1214 11.49032,-11.4903 0,-6.364 -5.12706,-11.4904 -11.49032,-11.4904 z m 34.47274,0 c -6.36595,0 -11.49121,5.1313 -11.49121,11.4904 0,6.3689 5.12795,11.4903 11.49121,11.4903 6.36505,0 11.49121,-5.1214 11.49121,-11.4903 0,-6.364 -5.12706,-11.4904 -11.49121,-11.4904 z m -34.47274,34.476 c -6.36595,0 -11.49121,5.1214 -11.49121,11.4904 0,6.3641 5.12616,11.4903 11.49121,11.4903 6.36595,0 11.49032,-5.1311 11.49032,-11.4903 0,-6.369 -5.12706,-11.4904 -11.49032,-11.4904 z m 34.47274,0 c -6.36595,0 -11.49121,5.1214 -11.49121,11.4904 0,6.3641 5.12795,11.4903 11.49121,11.4903 6.36505,0 11.49121,-5.1311 11.49121,-11.4903 0,-6.369 -5.12706,-11.4904 -11.49121,-11.4904 z"
         style="color:#000000;font-style:normal;font-variant:normal;font-weight:normal;font-stretch:normal;font-size:medium;line-height:normal;font-family:sans-serif;text-indent:0;text-align:start;text-decoration:none;text-decoration-line:none;text-decoration-style:solid;text-decoration-color:#000000;letter-spacing:normal;word-spacing:normal;text-transform:none;direction:ltr;block-progression:tb;writing-mode:lr-tb;baseline-shift:baseline;text-anchor:start;white-space:normal;clip-rule:nonzero;display:inline;overflow:visible;visibility:visible;opacity:1;isolation:auto;mix-blend-mode:normal;color-interpolation:sRGB;color-interpolation-filters:linearRGB;solid-color:#000000;solid-opacity:1;fill:#5b3c88;fill-opacity:1;fill-rule:evenodd;stroke:none;stroke-width:160;stroke-linecap:butt;stroke-linejoin:round;stroke-miterlimit:4;stroke-dasharray:none;stroke-dashoffset:0;stroke-opacity:1;color-rendering:auto;image-rendering:auto;shape-rendering:auto;text-rendering:auto;enable-background:accumulate" />
    </g>
    <rect
       inkscape:export-ydpi="2.22"
       inkscape:export-xdpi="2.22"
       y="162.28362"
       x="-3514.5383"
       height="1300"
       width="1300"
       id="rect4422"
       style="opacity:1;fill:none;fill-opacity:1;stroke:none;stroke-width:200;stroke-linecap:round;stroke-linejoin:round;stroke-miterlimit:4;stroke-dasharray:none;stroke-opacity:1" />
    <path
       inkscape:export-ydpi="2.22"
       inkscape:export-xdpi="2.22"
       id="path4426"
       d="m -3029.4138,162.28361 0,322.81863 0,86.07538 -86.0754,0 -323.1679,0 0,651.77238 117.8774,0 c 172.3843,-305.09627 350.4783,-606.97123 524.6267,-911.06633 18.6652,-46.0287 59.4572,-83.71304 107.4824,-96.60642 l 0,-52.99364 -340.7432,0 z m -86.0754,2.23217 -320.5869,320.58646 320.5869,0 0,-320.58646 z"
       style="opacity:1;fill:#87939a;fill-opacity:1;stroke:none;stroke-width:200;stroke-linecap:round;stroke-linejoin:round;stroke-miterlimit:4;stroke-dasharray:none;stroke-opacity:1"
       inkscape:connector-curvature="0" />
    <path
       sodipodi:nodetypes="cccccscccccscccccccccccccccccccccccccccccccccc"
       inkscape:export-ydpi="2.22"
       inkscape:export-xdpi="2.22"
       inkscape:connector-curvature="0"
       id="path4428"
       d="m -2653.0075,264.87983 c -33.127,-0.34111 -63.8471,17.26285 -80.4169,45.94737 l -580.2891,1005.0915 159.2224,91.9278 169.1668,-292.9997 c -56.1418,-7.4848 -99.5974,-55.5611 -99.5974,-113.9097 0,-64.10816 52.4475,-115.81489 116.5487,-114.91346 40.6421,0 77.844,1.8031 112.1659,5.18967 l 171.0422,-296.25473 107.9285,402.79165 c -94.6409,-50.67362 -203.0829,-88.73608 -391.1366,-88.73608 -51.3091,-0.76934 -93.3167,40.61266 -93.3167,91.92785 0,51.3153 42.0076,92.6973 93.3167,91.9279 177.8669,0 229.8395,25.0517 319.1163,75.0529 101.6191,56.911 144.7381,125.0638 162.8933,168.9641 l 3.5704,13.3274 11.7677,43.9149 c 0.5108,1.9492 1.1159,3.8497 1.7506,5.6818 0.036,0.1626 0.072,0.325 0.1104,0.4874 1.0244,2.8751 2.0972,5.6526 3.3352,8.3522 17.5169,38.2866 59.5469,60.4876 102.0797,51.731 27.0591,-5.5648 48.9857,-22.5617 61.6189,-45.0211 0.036,-0.1623 0.063,-0.3248 0.099,-0.4873 1.4535,-2.5826 2.7732,-5.2578 3.9708,-7.9817 0.036,-0.1624 0.072,-0.3248 0.1104,-0.4874 1.1868,-2.6801 2.2318,-5.5064 3.152,-8.3474 0.018,-0.1624 0.027,-0.3248 0.045,-0.4872 0.9211,-2.875 1.7093,-5.789 2.3431,-8.7713 0.615,-2.9725 1.1357,-5.9791 1.4741,-9.0246 0,-0.013 0,-0.014 0,0 l 0,-0.014 c 0.3062,-2.9725 0.5109,-5.9645 0.5109,-8.9906 0,-0.1624 0,-0.3249 0,-0.4873 0.036,-2.875 -0.098,-5.7598 -0.3062,-8.6786 -0.01,-0.195 -0.027,-0.3899 -0.036,-0.5848 -0.1104,-1.5593 -0.3061,-3.07 -0.5108,-4.6293 0,0 -0.072,-0.4873 -0.09,-0.4873 -0.036,-0.3576 -0.072,-0.7149 -0.1095,-1.072 0,0 -0.615,-3.2648 -1.976,-9.1612 l 0,0 -0.063,-0.4874 c -0.307,-1.4618 -0.7164,-3.0699 -1.1877,-4.7754 -1.2174,-4.9216 -2.8459,-10.8861 -4.9215,-18.0006 l -265.4138,-989.96424 c -10.7011,-39.89468 -46.692,-67.75518 -87.9957,-68.11627 z"
       style="color:#000000;font-style:normal;font-variant:normal;font-weight:normal;font-stretch:normal;font-size:medium;line-height:normal;font-family:sans-serif;text-indent:0;text-align:start;text-decoration:none;text-decoration-line:none;text-decoration-style:solid;text-decoration-color:#000000;letter-spacing:normal;word-spacing:normal;text-transform:none;direction:ltr;block-progression:tb;writing-mode:lr-tb;baseline-shift:baseline;text-anchor:start;white-space:normal;clip-rule:nonzero;display:inline;overflow:visible;visibility:visible;opacity:1;isolation:auto;mix-blend-mode:normal;color-interpolation:sRGB;color-interpolation-filters:linearRGB;solid-color:#000000;solid-opacity:1;fill:#5b3c88;fill-opacity:1;fill-rule:evenodd;stroke:none;stroke-width:160;stroke-linecap:butt;stroke-linejoin:round;stroke-miterlimit:4;stroke-dasharray:none;stroke-dashoffset:0;stroke-opacity:1;color-rendering:auto;image-rendering:auto;shape-rendering:auto;text-rendering:auto;enable-background:accumulate" />
    <path
       inkscape:connector-curvature="0"
       id="path4144"
       d="m -8035.7631,-249.4407 c -33.1834,-0.3417 -63.9558,17.2922 -80.5539,46.0255 l -581.2775,1006.8036 159.4936,92.08441 169.455,-293.49871 c -56.2375,-7.4977 -99.7671,-55.6559 -99.7671,-114.1038 0,-64.2173 52.5369,-116.0122 116.7472,-115.1093 40.7114,0 77.9766,1.8062 112.357,5.1986 l 171.3336,-296.759405 108.1123,403.477705 c -94.8021,-50.7599 -203.4288,-88.8871 -391.8029,-88.8871 a 92.094824,92.094824 0 1 0 0,184.1689 c 178.1699,0 230.231,25.0944 319.6599,75.1807 101.7923,57.0079 144.9847,125.2768 163.1709,169.252 l 3.5764,13.35 11.7877,43.98981 c 0.5117,1.9524 1.1178,3.8562 1.7536,5.6914 a 92.094824,92.094824 0 0 0 0.1107,0.4882 c 1.026,2.88 2.1007,5.6622 3.3408,8.3664 17.5467,38.3519 59.6483,60.5907 102.2535,51.8192 27.1052,-5.5743 49.0692,-22.6002 61.7239,-45.0978 a 92.094824,92.094824 0 0 0 0.099,-0.4882 c 1.4559,-2.587 2.7779,-5.2667 3.9775,-7.9953 a 92.094824,92.094824 0 0 0 0.1106,-0.4882 c 1.1888,-2.6845 2.2356,-5.5157 3.1574,-8.3616 a 92.094824,92.094824 0 0 0 0.045,-0.488 c 0.9226,-2.8799 1.7122,-5.7989 2.3471,-8.7863 0.616,-2.9775 1.1376,-5.9893 1.4766,-9.0399 0,-0.013 0,-0.014 0,0 a 92.094824,92.094824 0 0 0 0,-0.014 c 0.3066,-2.9775 0.5116,-5.9746 0.5116,-9.0059 a 92.094824,92.094824 0 0 0 0,-0.4881 c 0.036,-2.8799 -0.098,-5.7696 -0.3066,-8.69341 a 92.094824,92.094824 0 0 0 -0.036,-0.5858 c -0.1106,-1.5619 -0.3067,-3.0752 -0.5117,-4.6372 0,0 -0.072,-0.4881 -0.09,-0.4881 a 92.094824,92.094824 0 0 0 -0.1098,-1.0738 c 0,0 -0.6159,-3.2704 -1.9792,-9.1768 l 0,0 -0.063,-0.4883 c -0.3075,-1.4643 -0.7176,-3.0751 -1.1897,-4.7835 -1.2195,-4.93 -2.8508,-10.9046 -4.9299,-18.0313 l -265.8658,-991.6508 c -10.7195,-39.9627 -46.7717,-67.8707 -88.1457,-68.2324 z m -313.4377,669.8914 a 66.597636,66.597636 0 0 1 66.5989,66.5996 66.597636,66.597636 0 0 1 -66.5989,66.5946 66.597636,66.597636 0 0 1 -66.598,-66.5946 66.597636,66.597636 0 0 1 66.598,-66.5996 z m -17.2653,37.8198 c -6.3768,0 -11.5108,5.1401 -11.5108,11.51 0,6.3797 5.1349,11.5099 11.5108,11.5099 6.3768,0 11.5099,-5.1302 11.5099,-11.5099 0,-6.3748 -5.1358,-11.51 -11.5099,-11.51 z m 34.5315,0 c -6.3768,0 -11.5108,5.1401 -11.5108,11.51 0,6.3797 5.1367,11.5099 11.5108,11.5099 6.3758,0 11.5108,-5.1302 11.5108,-11.5099 0,-6.3748 -5.1359,-11.51 -11.5108,-11.51 z m -34.5315,34.5347 c -6.3768,0 -11.5108,5.1302 -11.5108,11.51 0,6.375 5.1349,11.5099 11.5108,11.5099 6.3768,0 11.5099,-5.1398 11.5099,-11.5099 0,-6.3798 -5.1358,-11.51 -11.5099,-11.51 z m 34.5315,0 c -6.3768,0 -11.5108,5.1302 -11.5108,11.51 0,6.375 5.1367,11.5099 11.5108,11.5099 6.3758,0 11.5108,-5.1398 11.5108,-11.5099 0,-6.3798 -5.1359,-11.51 -11.5108,-11.51 z"
       style="color:#000000;font-style:normal;font-variant:normal;font-weight:normal;font-stretch:normal;font-size:medium;line-height:normal;font-family:sans-serif;text-indent:0;text-align:start;text-decoration:none;text-decoration-line:none;text-decoration-style:solid;text-decoration-color:#000000;letter-spacing:normal;word-spacing:normal;text-transform:none;direction:ltr;block-progression:tb;writing-mode:lr-tb;baseline-shift:baseline;text-anchor:start;white-space:normal;clip-rule:nonzero;display:inline;overflow:visible;visibility:visible;opacity:1;isolation:auto;mix-blend-mode:normal;color-interpolation:sRGB;color-interpolation-filters:linearRGB;solid-color:#000000;solid-opacity:1;fill:#5b3c88;fill-opacity:1;fill-rule:evenodd;stroke:none;stroke-width:160;stroke-linecap:butt;stroke-linejoin:round;stroke-miterlimit:4;stroke-dasharray:none;stroke-dashoffset:0;stroke-opacity:1;color-rendering:auto;image-rendering:auto;shape-rendering:auto;text-rendering:auto;enable-background:accumulate"
       inkscape:export-xdpi="34.619999"
       inkscape:export-ydpi="34.619999" />
    <rect
       style="opacity:1;fill:none;fill-opacity:1;stroke:none;stroke-width:200;stroke-linecap:round;stroke-linejoin:round;stroke-miterlimit:4;stroke-dasharray:none;stroke-opacity:1"
       id="rect4151"
       width="1300"
       height="1300"
       x="-8835.0762"
       y="-299.99731"
       inkscape:export-xdpi="34.619999"
       inkscape:export-ydpi="34.619999" />
    <g
       id="g4222"
       transform="matrix(0.97164478,0,0,0.97164478,-452.37066,-96.382367)"
       inkscape:export-xdpi="2.2153847"
       inkscape:export-ydpi="2.2153847">
      <path
         sodipodi:nodetypes="cccccscccccscccccccccccccccccccccccccccccccccc"
         inkscape:export-ydpi="2.22"
         inkscape:export-xdpi="2.22"
         inkscape:connector-curvature="0"
         id="path4212"
         d="m -8210.5438,-2360.0152 c -33.127,-0.3411 -63.8471,17.2629 -80.4169,45.9474 l -580.2891,1005.0915 159.2224,91.9278 169.1668,-292.9997 c -56.1418,-7.4848 -99.5974,-55.5611 -99.5974,-113.9097 0,-64.1082 52.4475,-115.8149 116.5487,-114.9135 40.6421,0 77.844,1.8031 112.1659,5.1897 l 171.0422,-296.2547 107.9285,402.7916 c -94.6409,-50.6736 -203.0829,-88.736 -391.1366,-88.736 -51.3091,-0.7694 -93.3167,40.6126 -93.3167,91.9278 0,51.3153 42.0076,92.6973 93.3167,91.9279 177.8669,0 229.8395,25.0517 319.1163,75.0529 101.6191,56.911 144.7381,125.0638 162.8933,168.9641 l 3.5704,13.3274 11.7677,43.9149 c 0.5108,1.9492 1.1159,3.8497 1.7506,5.6818 0.036,0.1626 0.072,0.325 0.1104,0.4874 1.0244,2.8751 2.0972,5.6526 3.3352,8.3522 17.5169,38.2866 59.5469,60.4876 102.0797,51.731 27.0591,-5.5648 48.9857,-22.5617 61.6189,-45.0211 0.036,-0.1623 0.063,-0.3248 0.099,-0.4873 1.4535,-2.5826 2.7732,-5.2578 3.9708,-7.9817 0.036,-0.1624 0.072,-0.3248 0.1104,-0.4874 1.1868,-2.6801 2.2318,-5.5064 3.152,-8.3474 0.018,-0.1624 0.027,-0.3248 0.045,-0.4872 0.9211,-2.875 1.7093,-5.789 2.3431,-8.7713 0.615,-2.9725 1.1357,-5.9791 1.4741,-9.0246 0,-0.013 0,-0.014 0,0 l 0,-0.014 c 0.3062,-2.9725 0.5109,-5.9645 0.5109,-8.9906 0,-0.1624 0,-0.3249 0,-0.4873 0.036,-2.875 -0.098,-5.7598 -0.3062,-8.6786 -0.01,-0.195 -0.027,-0.3899 -0.036,-0.5848 -0.1104,-1.5593 -0.3061,-3.07 -0.5108,-4.6293 0,0 -0.072,-0.4873 -0.09,-0.4873 -0.036,-0.3576 -0.072,-0.7149 -0.1095,-1.072 0,0 -0.615,-3.2648 -1.976,-9.1612 l 0,0 -0.063,-0.4874 c -0.307,-1.4618 -0.7164,-3.0699 -1.1877,-4.7754 -1.2174,-4.9216 -2.8459,-10.8861 -4.9215,-18.0006 l -265.4138,-989.9642 c -10.7011,-39.8947 -46.692,-67.7552 -87.9957,-68.1163 z"
         style="color:#000000;font-style:normal;font-variant:normal;font-weight:normal;font-stretch:normal;font-size:medium;line-height:normal;font-family:sans-serif;text-indent:0;text-align:start;text-decoration:none;text-decoration-line:none;text-decoration-style:solid;text-decoration-color:#000000;letter-spacing:normal;word-spacing:normal;text-transform:none;direction:ltr;block-progression:tb;writing-mode:lr-tb;baseline-shift:baseline;text-anchor:start;white-space:normal;clip-rule:nonzero;display:inline;overflow:visible;visibility:visible;opacity:1;isolation:auto;mix-blend-mode:normal;color-interpolation:sRGB;color-interpolation-filters:linearRGB;solid-color:#000000;solid-opacity:1;fill:#5b3c88;fill-opacity:1;fill-rule:evenodd;stroke:none;stroke-width:160;stroke-linecap:butt;stroke-linejoin:round;stroke-miterlimit:4;stroke-dasharray:none;stroke-dashoffset:0;stroke-opacity:1;color-rendering:auto;image-rendering:auto;shape-rendering:auto;text-rendering:auto;enable-background:accumulate" />
      <g
         transform="matrix(0.36272764,0.9318952,-0.9318952,0.36272764,-4653.2961,5661.152)"
         id="g4206">
        <path
           style="fill:#e5ffd5"
           d="m -8057.1328,293.27539 c 81.319,81.31901 162.638,162.63802 243.957,243.95703 0,-55.25065 0,-110.5013 0,-165.75195 86.9171,15.20249 159.1337,94.2334 163.2363,182.89258 2.7589,41.44129 -8.8568,82.83125 -27.4824,119.55859 -2.1779,17.43993 10.6347,31.69834 23.2267,41.9258 24.8828,24.8789 49.7656,49.7578 74.6483,74.6367 93.8971,-109.46918 106.9188,-279.30299 31.0703,-401.99609 -55.3772,-93.49145 -156.6522,-158.50138 -264.6992,-168.80078 0,-56.79232 0,-113.58464 0,-170.376958 -81.319,81.318358 -162.638,162.636718 -243.957,243.955078 z m -64.9395,51.27344 c -54.9661,74.50373 -85.6335,168.7155 -75.6465,261.34179 10.9819,104.22008 71.8128,202.21953 160.9008,257.88463 45.5418,28.97415 97.8178,47.58677 151.5348,52.82827 0.1443,56.77202 0.1026,113.54428 0.1016,170.31638 81.3209,-81.3222 162.6419,-162.64451 243.9628,-243.96678 -81.3183,-81.31901 -162.6367,-162.63802 -243.955,-243.95703 0,55.24675 0,110.49349 0,165.74024 -85.7031,-15.02044 -157.2442,-91.97752 -162.9375,-179.28321 -3.7552,-42.54692 7.95,-85.38218 27.3261,-123.04882 2.3474,-17.30929 -10.6708,-31.65557 -23.1235,-41.77129 -25.7826,-25.73132 -51.4659,-51.58391 -77.3179,-77.22676 l -0.5949,0.80378 -0.2508,0.3388 z"
           id="path4160"
           inkscape:connector-curvature="0" />
        <path
           style="fill:#00d400"
           inkscape:connector-curvature="0"
           d="m -7849.1766,254.01372 0,-117.7877 -157.0503,157.0503 157.0503,157.05031 0,-117.78773 c 129.9591,0 235.5755,105.61633 235.5755,235.57546 0,39.6552 -9.8157,77.34727 -27.4838,109.93521 l 57.3233,57.32336 c 30.6248,-48.29297 48.6856,-105.61633 48.6856,-167.25857 0,-173.54059 -140.56,-314.10064 -314.1006,-314.10064 z m 0,549.67609 c -129.9591,0 -235.5754,-105.61633 -235.5754,-235.57545 0,-39.65521 9.8156,-77.34728 27.4838,-109.93522 l -57.3234,-57.32336 c -30.6248,48.29297 -48.6856,105.61633 -48.6856,167.25858 0,173.54058 140.56,314.1006 314.1006,314.1006 l 0,117.78774 157.0503,-157.05031 -157.0503,-157.05031 0,117.78773 z"
           id="path4144-3" />
      </g>
    </g>
    <rect
       inkscape:export-ydpi="2.22"
       inkscape:export-xdpi="2.22"
       y="-2517.0137"
       x="-7478.4048"
       height="1300"
       width="1300"
       id="rect4228"
       style="opacity:1;fill:none;fill-opacity:1;stroke:none;stroke-width:200;stroke-linecap:round;stroke-linejoin:round;stroke-miterlimit:4;stroke-dasharray:none;stroke-opacity:1" />
    <g
       inkscape:export-ydpi="2.22"
       inkscape:export-xdpi="2.22"
       transform="matrix(0.97164478,0,0,0.97164478,1141.2989,-150.78474)"
       id="g4230">
      <path
         style="color:#000000;font-style:normal;font-variant:normal;font-weight:normal;font-stretch:normal;font-size:medium;line-height:normal;font-family:sans-serif;text-indent:0;text-align:start;text-decoration:none;text-decoration-line:none;text-decoration-style:solid;text-decoration-color:#000000;letter-spacing:normal;word-spacing:normal;text-transform:none;direction:ltr;block-progression:tb;writing-mode:lr-tb;baseline-shift:baseline;text-anchor:start;white-space:normal;clip-rule:nonzero;display:inline;overflow:visible;visibility:visible;opacity:1;isolation:auto;mix-blend-mode:normal;color-interpolation:sRGB;color-interpolation-filters:linearRGB;solid-color:#000000;solid-opacity:1;fill:#997bc5;fill-opacity:1;fill-rule:evenodd;stroke:none;stroke-width:160;stroke-linecap:butt;stroke-linejoin:round;stroke-miterlimit:4;stroke-dasharray:none;stroke-dashoffset:0;stroke-opacity:1;color-rendering:auto;image-rendering:auto;shape-rendering:auto;text-rendering:auto;enable-background:accumulate"
         d="m -8210.5438,-2360.0152 c -33.127,-0.3411 -63.8471,17.2629 -80.4169,45.9474 l -580.2891,1005.0915 159.2224,91.9278 169.1668,-292.9997 c -56.1418,-7.4848 -99.5974,-55.5611 -99.5974,-113.9097 0,-64.1082 52.4475,-115.8149 116.5487,-114.9135 40.6421,0 77.844,1.8031 112.1659,5.1897 l 171.0422,-296.2547 107.9285,402.7916 c -94.6409,-50.6736 -203.0829,-88.736 -391.1366,-88.736 -51.3091,-0.7694 -93.3167,40.6126 -93.3167,91.9278 0,51.3153 42.0076,92.6973 93.3167,91.9279 177.8669,0 229.8395,25.0517 319.1163,75.0529 101.6191,56.911 144.7381,125.0638 162.8933,168.9641 l 3.5704,13.3274 11.7677,43.9149 c 0.5108,1.9492 1.1159,3.8497 1.7506,5.6818 0.036,0.1626 0.072,0.325 0.1104,0.4874 1.0244,2.8751 2.0972,5.6526 3.3352,8.3522 17.5169,38.2866 59.5469,60.4876 102.0797,51.731 27.0591,-5.5648 48.9857,-22.5617 61.6189,-45.0211 0.036,-0.1623 0.063,-0.3248 0.099,-0.4873 1.4535,-2.5826 2.7732,-5.2578 3.9708,-7.9817 0.036,-0.1624 0.072,-0.3248 0.1104,-0.4874 1.1868,-2.6801 2.2318,-5.5064 3.152,-8.3474 0.018,-0.1624 0.027,-0.3248 0.045,-0.4872 0.9211,-2.875 1.7093,-5.789 2.3431,-8.7713 0.615,-2.9725 1.1357,-5.9791 1.4741,-9.0246 0,-0.013 0,-0.014 0,0 l 0,-0.014 c 0.3062,-2.9725 0.5109,-5.9645 0.5109,-8.9906 0,-0.1624 0,-0.3249 0,-0.4873 0.036,-2.875 -0.098,-5.7598 -0.3062,-8.6786 -0.01,-0.195 -0.027,-0.3899 -0.036,-0.5848 -0.1104,-1.5593 -0.3061,-3.07 -0.5108,-4.6293 0,0 -0.072,-0.4873 -0.09,-0.4873 -0.036,-0.3576 -0.072,-0.7149 -0.1095,-1.072 0,0 -0.615,-3.2648 -1.976,-9.1612 l 0,0 -0.063,-0.4874 c -0.307,-1.4618 -0.7164,-3.0699 -1.1877,-4.7754 -1.2174,-4.9216 -2.8459,-10.8861 -4.9215,-18.0006 l -265.4138,-989.9642 c -10.7011,-39.8947 -46.692,-67.7552 -87.9957,-68.1163 z"
         id="path4232"
         inkscape:connector-curvature="0"
         inkscape:export-xdpi="2.22"
         inkscape:export-ydpi="2.22"
         sodipodi:nodetypes="cccccscccccscccccccccccccccccccccccccccccccccc" />
      <g
         id="g4234"
         transform="matrix(0.36272764,0.9318952,-0.9318952,0.36272764,-4653.2961,5661.152)">
        <path
           inkscape:connector-curvature="0"
           id="path4236"
           d="m -8057.1328,293.27539 c 81.319,81.31901 162.638,162.63802 243.957,243.95703 0,-55.25065 0,-110.5013 0,-165.75195 86.9171,15.20249 159.1337,94.2334 163.2363,182.89258 2.7589,41.44129 -8.8568,82.83125 -27.4824,119.55859 -2.1779,17.43993 10.6347,31.69834 23.2267,41.9258 24.8828,24.8789 49.7656,49.7578 74.6483,74.6367 93.8971,-109.46918 106.9188,-279.30299 31.0703,-401.99609 -55.3772,-93.49145 -156.6522,-158.50138 -264.6992,-168.80078 0,-56.79232 0,-113.58464 0,-170.376958 -81.319,81.318358 -162.638,162.636718 -243.957,243.955078 z m -64.9395,51.27344 c -54.9661,74.50373 -85.6335,168.7155 -75.6465,261.34179 10.9819,104.22008 71.8128,202.21953 160.9008,257.88463 45.5418,28.97415 97.8178,47.58677 151.5348,52.82827 0.1443,56.77202 0.1026,113.54428 0.1016,170.31638 81.3209,-81.3222 162.6419,-162.64451 243.9628,-243.96678 -81.3183,-81.31901 -162.6367,-162.63802 -243.955,-243.95703 0,55.24675 0,110.49349 0,165.74024 -85.7031,-15.02044 -157.2442,-91.97752 -162.9375,-179.28321 -3.7552,-42.54692 7.95,-85.38218 27.3261,-123.04882 2.3474,-17.30929 -10.6708,-31.65557 -23.1235,-41.77129 -25.7826,-25.73132 -51.4659,-51.58391 -77.3179,-77.22676 l -0.5949,0.80378 -0.2508,0.3388 z"
           style="fill:#e5ffd5" />
        <path
           id="path4238"
           d="m -7849.1766,254.01372 0,-117.7877 -157.0503,157.0503 157.0503,157.05031 0,-117.78773 c 129.9591,0 235.5755,105.61633 235.5755,235.57546 0,39.6552 -9.8157,77.34727 -27.4838,109.93521 l 57.3233,57.32336 c 30.6248,-48.29297 48.6856,-105.61633 48.6856,-167.25857 0,-173.54059 -140.56,-314.10064 -314.1006,-314.10064 z m 0,549.67609 c -129.9591,0 -235.5754,-105.61633 -235.5754,-235.57545 0,-39.65521 9.8156,-77.34728 27.4838,-109.93522 l -57.3234,-57.32336 c -30.6248,48.29297 -48.6856,105.61633 -48.6856,167.25858 0,173.54058 140.56,314.1006 314.1006,314.1006 l 0,117.78774 157.0503,-157.05031 -157.0503,-157.05031 0,117.78773 z"
           inkscape:connector-curvature="0"
           style="fill:#00d400" />
      </g>
    </g>
  </g>
</svg>
